
<global>
amp_veltrack=0
xfin_hicc1=24
xfout_hicc1=127
xfout_locc1=127
</global>

<group>
ampeg_release=0.05
group_label=Sustain_0-45
lpc_hicc1=42
lpc_locc1=0

<region>
hikey=g#6
hivel=127
lokey=g6
lovel=1
lpc=ch0DQgXSKsJzXrxBii4HwdkbOD+9EJxBfJkvwQ5v7UCbDB2/aESDQBab4j8Vz6k/c45OQeHwOcGSzPvALitLQUAqx0D0SJbA/V0FQSV3DcEiLpQ/1o7MQE3Z5cDu/kxA
lpc_rms=-20.38
pitch_keycenter=G#6
sample=Flute_fall_PP_G#6.opus
</region>

<region>
hikey=g#5
hivel=127
lokey=g5
lovel=1
lpc=NTTZQbyfEcLJc8FBYdQKwbe3I0DxjTZB+70VwTInSkA/q1ZA3aYVQDToRkD8O/W/09qLvzxZoEB6EtI/IoqJP1fKNL4HMjK+rkrsQNrEub4gfe++ObbxPqngpT8Vmp1A
lpc_rms=-31.30
pitch_keycenter=g#5
sample=Flute_fall_PP_G#5.opus
</region>

<region>
hikey=g#4
hivel=127
lokey=g4
lovel=1
lpc=mlsAQuE4q8KxsaRCLVjHwRxzXsFQcWlBqGUtPzZOzMDAeTO/KMQhP6c3rkBgDAjBnuEtQWsLFsGJ9qJAhSmWwEhzb0BtY3o/aXzBv3UlCMBEOHFAV/8FwJNp0r4abJY/
lpc_rms=-40.36
pitch_keycenter=g#4
sample=Flute_fall_PP_G#4.opus
</region>

<region>
hikey=f#6
hivel=127
lokey=f6
lovel=1
lpc=HGu/QdD9C8KivodBKGQCwNxwpcDZrZhBnz1ywRlULUAvIqlArMqLv0hMd0CasrW/5zlYv6FZDECEPrZAvBALwUgY9L+VaRtBvcx0v26ZH0A7lBS/iKCnwG01nEDXUWy9
lpc_rms=-24.84
pitch_keycenter=f#6
sample=Flute_fall_PP_F#6.opus
</region>

<region>
hikey=f#5
hivel=127
lokey=f5
lovel=1
lpc=l4CMQU7B6MGfiKFBRksVwcQJfEChMa1Ah5XVwM8cVEA6F24+LcgwvnOe0j/KSKS/CpAIv8zxSkC5oti/tJPnP8fYlT/HZHfAg6nPQEmGoMCCG0tArBaWv39qxr2ehjxA
lpc_rms=-37.92
pitch_keycenter=f#5
sample=Flute_fall_PP_F#5.opus
</region>

<region>
hikey=f#4
hivel=127
lokey=f4
lovel=1
lpc=45WpQoCnYsN9ImpD+Hftwu7p8EFxwT1Bkl0PwvL2vkF95XdBjPvzwU/dSUEnWli/Y0YFQexCDMFHvrvAx/ZTQBCmvkAvYz/AOzUWQKlOEMDBT5tA4E5AwH4cjMDZBYlA
lpc_rms=-32.98
pitch_keycenter=f#4
sample=Flute_fall_PP_F#4.opus
</region>

<region>
hikey=e6
hivel=127
lokey=d#6
lovel=1
lpc=noq5QYWi/MHLOXdAePeFQQKS8cDLvLg/jWByPf/IgD+FQx1AEhwawNbHw0BAuGPAGFkcQK4Pcz9fDElAPSU+vylK/T8OscLA8Mm0v0JhIEESM4NAsHACwVtis78FBahA
lpc_rms=-26.60
pitch_keycenter=e6
sample=Flute_fall_PP_E6.opus
</region>

<region>
hikey=e5
hivel=127
lokey=d#5
lovel=1
lpc=9LoDQszMcsJtHTVCZt+iwbFZwD78WF9BoFwMwY1yH0BnLwRB8QplwXIyI0Fe2u7Avv0xQWP5OcGvqbNARG6uP3zEecB1JCRBEj0dwPxLqsAb5YxAmTaJwIPIJMCnygBB
lpc_rms=-34.13
pitch_keycenter=e5
sample=Flute_fall_PP_E5.opus
</region>

<region>
hikey=e4
hivel=127
lokey=d#4
lovel=1
lpc=lK3eQqnNm8N6uKNDTi8gww5BAkKVPLBBcDq3wd11YcG76I9Bf9YNQLZjwsB43BJAJTabQD0/SsHElpdAIs2KQKvSxEBAm2DBxYnlQDRCX7uh58HAKciUQeyptsGHuSNB
lpc_rms=-33.93
pitch_keycenter=e4
sample=Flute_fall_PP_E4.opus
</region>

<region>
hikey=d6
hivel=127
lokey=c#6
lovel=1
lpc=WqG3QWvf6MHuQjVB8bXpvyiUGcD4ETdBzPECwd8Cd0D+2uk/D3fcvsXQPkAyiu2/XUo2QEM8kT5D4FtAhsMHwGxWSUCLZ0m/4JYKQFyZzL/yTwPB/ZX4QBH4mECq986/
lpc_rms=-28.96
pitch_keycenter=d6
sample=Flute_fall_PP_D6.opus
</region>

<region>
hikey=d5
hivel=127
lokey=c#5
lovel=1
lpc=GqobQkwRxsLaTdBC7YZowvS6wkD3ktdB7RPFwRAgHEEYZZ/ABpCAQJULIcBpKny/aYsUQfQ4QsGnL9lA6YqjwAFeBkH6hBPBldcaQQVjY7/qnCTBkGBUQYvYN8G2XrNA
lpc_rms=-36.20
pitch_keycenter=d5
sample=Flute_fall_PP_D5.opus
</region>

<region>
hikey=d4
hivel=127
lokey=c4
lovel=1
lpc=NzjlQQVmocLdgLRCSgNbwmQNm0Flrb1A2KxFwe2G+r8TTSlBPZy4wCr9B0DZ24O/sh5KvQ8kKMAm4HBAxVz+vJStLsBj0Nk/TMGQPz71Ij75ETLAL3FKQDsklMAIQkBA
lpc_rms=-44.40
pitch_keycenter=d4
sample=Flute_fall_PP_D4.opus
</region>

<region>
hikey=c6
hivel=127
lokey=b5
lovel=1
lpc=rjy2QYPWBsJVikBBHfkTQef2JsHpgK9ACn4nP2MMBb8yDolA2H57wFl2HUDMLhpAbptXP7Z7gMDGwrRA25l8P6RtiMB6kqdAkRJlPzBl1b+8TZRA1V2UwOiZ5cBIoSFB
lpc_rms=-29.41
pitch_keycenter=c6
sample=Flute_fall_PP_C6.opus
</region>

<region>
hikey=c5
hivel=127
lokey=b4
lovel=1
lpc=a2zOQUIxgcIF+ItCVpgrwk9HEUHiP4BBJBSewQR4FEG83ik+rYmYwAsxy0BwgwjBHlQLQdu438BSmaNArL8gwKogfUAci6PAMIZOQIUaS8AmRI9AdJQ9wLzmFkBaklK/
lpc_rms=-39.82
pitch_keycenter=c5
sample=Flute_fall_PP_C5.opus
</region>

<region>
hikey=a#5
hivel=127
lokey=a5
lovel=1
lpc=LK6LQUiY18F/cGBBovq5P6EWDMEYrzpB3FSEwB95jcA8VuJAlqtFwBEYZUAiBUTA5NFrP+Ss17+ZGT1ABlkRQKR2KMA1+eU9ICpPP/M6Qz4RB7c/9ueAv5dhjD84OM6/
lpc_rms=-32.00
pitch_keycenter=a#5
sample=Flute_fall_PP_A#5.opus
</region>

<region>
hikey=a#4
hivel=127
lokey=a4
lovel=1
lpc=o8PCQpjIdMNvGHpD3+0Dw5TKAUFR+YVCQjxmwr8fikHl9ntALOkywZ6rd0CJcVe/koFlQN78GcA4C/I/ZWcrwcnkv0GK7KDBziNQQcfP+MDueh5AfrtowI+kiD/duZFA
lpc_rms=-31.67
pitch_keycenter=a#4
sample=Flute_fall_PP_A#4.opus
</region>
</group>

<group>
ampeg_release=0.05
group_label=Sustain_46-90
lpc_hicc1=84
lpc_locc1=43

<region>
hikey=g#6
hivel=127
lokey=g6
lovel=1
lpc=zDVsQsaQqcL52CBCrAJbQLuuOMGYeQNCX0mQwc/1CkAzmYRB6mwJwZSiNkHrzpC/bZViQfEtJsHnKOrB5ApQQmj6n8A/O0XBCNiAQQvqmsF5f1lBfCovQPXNxMAahItA
lpc_rms=-11.55
pitch_keycenter=G#6
sample=Flute_fall_MF_G#6.opus
</region>

<region>
hikey=g#5
hivel=127
lokey=g5
lovel=1
lpc=hPiIQUM/DsJMPfhBHRggwWzY/sDui5RBDBtpwcO8rD4s+SdBdbsDwe5PlUBEe4jAjRmfQM5ubcD87VBAPfyxvwDWsb5inYI/zjGsP2y1Kj+6zVDA4RrqP2K/PkAmCA/A
lpc_rms=-26.31
pitch_keycenter=g#5
sample=Flute_fall_MF_G#5.opus
</region>

<region>
hikey=g#4
hivel=127
lokey=g4
lovel=1
lpc=BheNQUfXL8JmDxdC06yOwC6bh8Fyhn5BF9aiwA0KCsAKqwhA31qKvovduT9qNUHAHyQSQI48McA5109AhPn+v8V8nj/PmAhAMDmlwBjcA0BV7wxA+1zivlBRCMC0TGM/
lpc_rms=-28.79
pitch_keycenter=g#4
sample=Flute_fall_MF_G#4.opus
</region>

<region>
hikey=f#6
hivel=127
lokey=f6
lovel=1
lpc=ZeUHQmygTcI7MM5BZHUfvwa2QMGlT+5BJmqJwZvBakDfU+s/spLFPkukiEDNiwPAm1QGQT1858Ar81FBXrhEweFZZ8HEoxdCWXSAwQzbTkCtOtFAYgaTwbpvQUFzUcc/
lpc_rms=-18.43
pitch_keycenter=f#6
sample=Flute_fall_MF_F#6.opus
</region>

<region>
hikey=f#5
hivel=127
lokey=f5
lovel=1
lpc=R/SCQar0FsKpUQVC6eU3wYKHEcAEggZBt8kmwSi76kD4wo8/5cjjwCVm5UBd3cXA1ymwQPgln7+nQta/90UBQNroLMBu8pNAj4YdwEhi5L92kBRAWAuyv262P0C/mMS/
lpc_rms=-27.61
pitch_keycenter=f#5
sample=Flute_fall_MF_F#5.opus
</region>

<region>
hikey=f#4
hivel=127
lokey=f4
lovel=1
lpc=qTgYQtN/08LnKuRC+3hnwvFgzj/M4gRCzrAgwkHHtEFgAdjAmvJFPyR21ED9CTXBiw2eQAjyfL4mFLs8Yy7+vtXko0AoUtDAmcOWQNXD28BNvNFATy9OPr9dIMAP5ig/
lpc_rms=-28.91
pitch_keycenter=f#4
sample=Flute_fall_MF_F#4.opus
</region>

<region>
hikey=e6
hivel=127
lokey=d#6
lovel=1
lpc=wQzKQdLMMMIdPcpBhsAWwLLt07+vJwBBZL0XwfYBfEA547dAMDMNwcMcJUFgGdjAunFmQK1MYUAzea/A+ZO+QLWnBD9m6QrBIixfwHMKrkELSi3B112OvULuSMAL2H9A
lpc_rms=-19.83
pitch_keycenter=e6
sample=Flute_fall_MF_E6.opus
</region>

<region>
hikey=e5
hivel=127
lokey=d#5
lovel=1
lpc=lPjoQQgmiMKrLXpCnCP7wRCSxEBq0ppB6/rjwSCvZUHHa4pA2xYowbF77kBXmmbAaq9RP8wz4L8JXs9Ajz4+wLkHAT+H77nA10uRQDCaRz3UaPFAYggewQ5n0D5ndV5A
lpc_rms=-24.42
pitch_keycenter=e5
sample=Flute_fall_MF_E5.opus
</region>

<region>
hikey=e4
hivel=127
lokey=d#4
lovel=1
lpc=Nl4HQiXDwsJt2uRCZiWdwqzECUJibgZB5kkFwtaL6EHLq1jByOvBvWXeHkFPw3TBWjdRQfOX18DCAglBjeiDwUwvdUEmwfPAJegKQGq83UD3xS3BufQlQLG9MEBa75W/
lpc_rms=-29.88
pitch_keycenter=e4
sample=Flute_fall_MF_E4.opus
</region>

<region>
hikey=d6
hivel=127
lokey=c#6
lovel=1
lpc=yYEuQdGjocFOiG1BwPGowACAYr/kBspALQ3NwJR4ckAfnow/CbqCwM/avUA4ZrXAVwmHQIpYF79aSOS/xGN2QNE3KcCJ8ZA/fhIJQEtiZsDeUGDA6rcKQQXbasCBi4s+
lpc_rms=-30.19
pitch_keycenter=d6
sample=Flute_fall_MF_D6.opus
</region>

<region>
hikey=d5
hivel=127
lokey=c#5
lovel=1
lpc=KIcTQmrwssL4h5hCmxOBwSJttcENNPlBa1CTwSUl5UC1v9LAX3A1wJdiUkEr/lrByIRDQQCDusDZN2w/CkZ4wCoZokDxAQ+/88qPvy/7jj/ryQI/FF1YPyTigcDJMCxA
lpc_rms=-25.32
pitch_keycenter=d5
sample=Flute_fall_MF_D5.opus
</region>

<region>
hikey=d4
hivel=127
lokey=c#4
lovel=1
lpc=68mVQetKOMKTui1Cey+wwSqUk0B57OZA8r7xwGfbQkCWpbS/bLuRvS5Spj+r4CnADVNGQCyKccCnmuBAAWDewKlqwD8+zwxAerGxvw+ZZT9EjqS/MiSHP5K1Lr+IBLU+
lpc_rms=-39.67
pitch_keycenter=d4
sample=Flute_fall_MF_D4.opus
</region>

<region>
hikey=c6
hivel=127
lokey=b5
lovel=1
lpc=6Tm3QTfWK8ImxghCQYRkwSijbsDbV5NBeBmLwd0GCEHuovg+jI5QwJ+UoECHPlLAqWxeQGJ0cr/6EcI+AQITQKmeG8BqH01A/v/tv9E4KT+3W4VAZmKFwIGFz8DengdB
lpc_rms=-22.03
pitch_keycenter=c6
sample=Flute_fall_MF_C6.opus
</region>

<region>
hikey=c5
hivel=127
lokey=b4
lovel=1
lpc=jqMFQnGftcIE0bFCOF3vwV2zJMHSo6JBSWGawSSYNkH6L4a+968VwTgpPkEPpyjBv0BPQZxQWMFHN9lAMb2JQKYu4MB+SztAe/1UwDvxf79g0uBAVJSqvVLr78D2GY1A
lpc_rms=-29.25
pitch_keycenter=c5
sample=Flute_fall_MF_C5.opus
</region>

<region>
hivel=127
key=c4
lovel=1
lpc=kGewQUAqIsLOwJ9Bxd7ZwNzUREHZsJTAzY7Fvi/7vsBm1o5A7dxXPxdLwL6xtQzAtisIQOdoTMBNyzhAzhppv7PFo716NHFA76pwwKhrfEDE79vA9H1ZQEpklT/grBO/
lpc_rms=-51.22
sample=Flute_fall_MF_C4.opus
</region>

<region>
hikey=a#5
hivel=127
lokey=a5
lovel=1
lpc=e1hSQbCu4cGfVdhBQ8xUwRuLIMC+U35Bb/SOwbeeEEF/IRY/jgKGwExgnEDXy0TAp+oGQDNPMMBWl3dA9sxYwPgmGkDwIAPA62CPP4HTwz97zpa+3lIcwPbnS0DgqQTA
lpc_rms=-27.16
pitch_keycenter=a#5
sample=Flute_fall_MF_A#5.opus
</region>

<region>
hikey=a#4
hivel=127
lokey=a4
lovel=1
lpc=PfY5Qi5QCsOyLSlDsE3YwqG4xEH9JSBC2mF3wuOwGEIyO7vAaCSBwXn9skG0DCfB40zsP9GR3cBvHkZB1mEqwaIL7kC/XcTA5XmoQNbIs7/AMn/Ax5YuQW6MYMGCZ91A
lpc_rms=-23.97
pitch_keycenter=a#4
sample=Flute_fall_MF_A#4.opus
</region>
</group>

<group>
ampeg_release=0.05
group_label=Sustain_91-127
lpc_hicc1=127
lpc_locc1=85

<region>
hikey=g#6
hivel=127
lokey=g6
lovel=1
lpc=0tXaQWvcLsLUaetBUYsPwclDoMAezb1BZQObwcYDC0H0bEZA9N4ywNB3wkDCyBXA9fCmQL5yycBifQLBY4zQQXERfMHMnO9AyZPnP9DBM8Ee9jdBoLiCwDqb3D9ySfK9
lpc_rms=-12.51
pitch_keycenter=G#6
sample=Flute_fall_FF_G#6.opus
</region>

<region>
hikey=g#5
hivel=127
lokey=g5
lovel=1
lpc=I16LQe2cGMKqng5CQlKBwYoNSsCggo9BDu6YwQLQC0H0iQ9Aqd+6wEx4iUAi3Ui/Ky6VPfDfAr5Ql0O/CjwUQNB/cL+/YpW/s4UrQLc5A8AHKnI/DSfPvoYeSUBPqDXA
lpc_rms=-20.56
pitch_keycenter=g#5
sample=Flute_fall_FF_G#5.opus
</region>

<region>
hikey=g#4
hivel=127
lokey=f#4
lovel=1
lpc=NIlNQTYG9cFbOclBkvmvwGW+ccCE4K5AhhmpwG5oL0B1fz4/Y/JwwEh9c0C8nDDAElhWQOhV4L+qjxbArjBqQCZqyb9d9D2+4th0vqfvdr4gLTZAaFyxvxioAcDUV8c/
lpc_rms=-26.68
pitch_keycenter=g#4
sample=Flute_fall_FF_G#4.opus
</region>

<region>
hikey=f#6
hivel=127
lokey=f6
lovel=1
lpc=EgEEQrERXMIagxRCqRj+wO+5N8E6ZO5BSgunwf4kpEB/JYFAExy8Plg1XUBOvxLAtIf9QACMw8DNTypBIYBmwbaWn8B4ugBC6eDEwbHQRkElfcA/9Hl1wYA3hUHczI/A
lpc_rms=-13.08
pitch_keycenter=f#6
sample=Flute_fall_FF_F#6.opus
</region>

<region>
hikey=f#5
hivel=127
lokey=f5
lovel=1
lpc=gC+CQfZeFMI46wxCWYWIwSccG0Bceg1BLKVEwczN1ECW1tQ/XnarwCYpq0CoRS3AHamqP6UgQz3sxQLAjjdlQDaLpr+6196/F2pJQHtJrL90n20/CUzwv0x+DUBzJbu9
lpc_rms=-23.34
pitch_keycenter=f#5
sample=Flute_fall_FF_F#5.opus
</region>

<region>
hikey=e6
hivel=127
lokey=d#6
lovel=1
lpc=TekeQsQYaMJ7owtCXGfQwHbx+MAsDbdBPQeIwWSH6EB9Cc5AcAw6wIyOuUDzYzm/LojcQHQIa8BXpuhAgLaMP3cHVkAqOYHB/JMoQLoytUGmF13BZTYfQXtQD8EJHchA
lpc_rms=-10.13
pitch_keycenter=e6
sample=Flute_fall_FF_E6.opus
</region>

<region>
hikey=e5
hivel=127
lokey=d#5
lovel=1
lpc=KFh2QSyqBsLr0rxBwneePnCtKME/zB1B3VmhwAkJuT+XM6o/BgidwPbCqkBHuF7Aekh7QPQHB8C042nAC6isQAfe0b9JCGk/mKlWv4TLF7+4dpY+JO0yvtmnFD9mB9w+
lpc_rms=-23.41
pitch_keycenter=e5
sample=Flute_fall_FF_E5.opus
</region>

<region>
hikey=f4
hivel=127
lokey=d#4
lovel=1
lpc=8YNCQXI7xsGPp21BjKSMvxdGDMDETKBAG5x8wF/th74SsixAkLi4wNOzkEBf62C/viG3P9DCBb9Rf/m/fpeTP5MUqT5S00+/9EHCOjffYT/gLi0/llfPv4rFx7sLv1g/
lpc_rms=-31.84
pitch_keycenter=E4
sample=Flute_fall_FF_E4.opus
</region>

<region>
hikey=d6
hivel=127
lokey=c#6
lovel=1
lpc=gth/Qfj59cHZ0s5BaiBNwZ2eOUAhu7RADl/lwET7okAYpSc+6dF1wAD8ukCx4IjAuriGQNqex7/5jaI8hi+DP2e5xL6mrFA/6XziPyHRuMB7l06/Xx8rQeyGAMH6sBhA
lpc_rms=-19.69
pitch_keycenter=d6
sample=Flute_fall_FF_D6.opus
</region>

<region>
hikey=d5
hivel=127
lokey=c#5
lovel=1
lpc=WW1+QekZEcJOBgBC02pWwYTs8j6HhbxA/vIDwaJX10BMkgdAlswcwfaLCEEz3DnA3Y6jPsIZZj+QL3zAiztDQKWpIEBvPinAD9Kdv3XZNUBdX9y+wg+Hv2Yzub+x8g9A
lpc_rms=-24.13
pitch_keycenter=d5
sample=Flute_fall_FF_D5.opus
</region>

<region>
hikey=d4
hivel=127
lokey=c4
lovel=1
lpc=uBJFQZ0v18HwBp1BhoV4wCdNZcAx7NhA0QqawA1orD9D+Cm/JJGZvz7iX0A1xFfAjvsnQPLKs79pu6o+z4SuvpSc5L6DIGw+ziTQP981Yb+EvAI9UdJZvmOci70uen0+
lpc_rms=-33.05
pitch_keycenter=d4
sample=Flute_fall_FF_D4.opus
</region>

<region>
hikey=c6
hivel=127
lokey=b5
lovel=1
lpc=kcxSQaBAwMFrup5BAKktwWi6TkDg0oxA9SGkwLHAWEDu2hI/K8nyvypN8T+vx8m/LphgQF+Xob898is/M4SsPlLnRL+yWvA/YbOIv4xLQj96HFRAVBDLwMVGqT8AOCpA
lpc_rms=-21.20
pitch_keycenter=c6
sample=Flute_fall_FF_C6.opus
</region>

<region>
hikey=c5
hivel=127
lokey=b4
lovel=1
lpc=bN5qQWHFEsLE3BBCyRuOwa9SVT7NGkVBl+JkwUqxukDH1YhAz/kBwXtv60B1SaDAY1dUPwl6fD8yND8/rU8SwNXiEUB1vKm/pWkDQP1a+r84kqQ/Wi8IwMXPtj/2XAc+
lpc_rms=-22.97
pitch_keycenter=c5
sample=Flute_fall_FF_C5.opus
</region>

<region>
hikey=a#5
hivel=127
lokey=a5
lovel=1
lpc=OjhNQbn9zMFBga5BBjnDwNhcycBjUylB1mPtwCjZHUDBzCNAEHGfwBHLkEAleQTAynI9PyLeED+Br46/X0YSP6yPmz9o4Xi/eM8GP/pCQb8v/Kc/XwZ7v1je1D/xpgbA
lpc_rms=-21.91
pitch_keycenter=a#5
sample=Flute_fall_FF_A#5.opus
</region>

<region>
hikey=a#4
hivel=127
lokey=a4
lovel=1
lpc=BG6+QeYqacLDTV9CFozTwXvsm0AENgRBOrlYwchu40C21/Q/lyTvwLqiEkGTLuXAJq+IQM+CKcC0qxlAF9c0v6OtkL69aE/ArnXGQHuEdMClUi6+uNF/QBd4ksAN+w1A
lpc_rms=-22.71
pitch_keycenter=a#4
sample=Flute_fall_FF_A#4.opus
</region>
</group>

<group>
ampeg_attack=0.02
ampeg_release=1.5
group_label=Release_0-45
lpc_hicc1=42
lpc_locc1=0
trigger=release

<region>
hikey=g#6
hivel=127
lokey=g6
lovel=1
lpc=ch0DQgXSKsJzXrxBii4HwdkbOD+9EJxBfJkvwQ5v7UCbDB2/aESDQBab4j8Vz6k/c45OQeHwOcGSzPvALitLQUAqx0D0SJbA/V0FQSV3DcEiLpQ/1o7MQE3Z5cDu/kxA
lpc_rms=-20.38
offset=87852
pitch_keycenter=G#6
sample=Flute_fall_PP_G#6.opus
</region>

<region>
hikey=g#5
hivel=127
lokey=g5
lovel=1
lpc=NTTZQbyfEcLJc8FBYdQKwbe3I0DxjTZB+70VwTInSkA/q1ZA3aYVQDToRkD8O/W/09qLvzxZoEB6EtI/IoqJP1fKNL4HMjK+rkrsQNrEub4gfe++ObbxPqngpT8Vmp1A
lpc_rms=-31.30
offset=86400
pitch_keycenter=g#5
sample=Flute_fall_PP_G#5.opus
</region>

<region>
hikey=g#4
hivel=127
lokey=g4
lovel=1
lpc=mlsAQuE4q8KxsaRCLVjHwRxzXsFQcWlBqGUtPzZOzMDAeTO/KMQhP6c3rkBgDAjBnuEtQWsLFsGJ9qJAhSmWwEhzb0BtY3o/aXzBv3UlCMBEOHFAV/8FwJNp0r4abJY/
lpc_rms=-40.36
offset=86400
pitch_keycenter=g#4
sample=Flute_fall_PP_G#4.opus
</region>

<region>
hikey=f#6
hivel=127
lokey=f6
lovel=1
lpc=HGu/QdD9C8KivodBKGQCwNxwpcDZrZhBnz1ywRlULUAvIqlArMqLv0hMd0CasrW/5zlYv6FZDECEPrZAvBALwUgY9L+VaRtBvcx0v26ZH0A7lBS/iKCnwG01nEDXUWy9
lpc_rms=-24.84
offset=90252
pitch_keycenter=f#6
sample=Flute_fall_PP_F#6.opus
</region>

<region>
hikey=f#5
hivel=127
lokey=f5
lovel=1
lpc=l4CMQU7B6MGfiKFBRksVwcQJfEChMa1Ah5XVwM8cVEA6F24+LcgwvnOe0j/KSKS/CpAIv8zxSkC5oti/tJPnP8fYlT/HZHfAg6nPQEmGoMCCG0tArBaWv39qxr2ehjxA
lpc_rms=-37.92
offset=86400
pitch_keycenter=f#5
sample=Flute_fall_PP_F#5.opus
</region>

<region>
hikey=f#4
hivel=127
lokey=f4
lovel=1
lpc=45WpQoCnYsN9ImpD+Hftwu7p8EFxwT1Bkl0PwvL2vkF95XdBjPvzwU/dSUEnWli/Y0YFQexCDMFHvrvAx/ZTQBCmvkAvYz/AOzUWQKlOEMDBT5tA4E5AwH4cjMDZBYlA
lpc_rms=-32.98
offset=86400
pitch_keycenter=f#4
sample=Flute_fall_PP_F#4.opus
</region>

<region>
hikey=e6
hivel=127
lokey=d#6
lovel=1
lpc=noq5QYWi/MHLOXdAePeFQQKS8cDLvLg/jWByPf/IgD+FQx1AEhwawNbHw0BAuGPAGFkcQK4Pcz9fDElAPSU+vylK/T8OscLA8Mm0v0JhIEESM4NAsHACwVtis78FBahA
lpc_rms=-26.60
offset=67249
pitch_keycenter=e6
sample=Flute_fall_PP_E6.opus
</region>

<region>
hikey=e5
hivel=127
lokey=d#5
lovel=1
lpc=9LoDQszMcsJtHTVCZt+iwbFZwD78WF9BoFwMwY1yH0BnLwRB8QplwXIyI0Fe2u7Avv0xQWP5OcGvqbNARG6uP3zEecB1JCRBEj0dwPxLqsAb5YxAmTaJwIPIJMCnygBB
lpc_rms=-34.13
offset=86400
pitch_keycenter=e5
sample=Flute_fall_PP_E5.opus
</region>

<region>
hikey=e4
hivel=127
lokey=d#4
lovel=1
lpc=lK3eQqnNm8N6uKNDTi8gww5BAkKVPLBBcDq3wd11YcG76I9Bf9YNQLZjwsB43BJAJTabQD0/SsHElpdAIs2KQKvSxEBAm2DBxYnlQDRCX7uh58HAKciUQeyptsGHuSNB
lpc_rms=-33.93
offset=86400
pitch_keycenter=e4
sample=Flute_fall_PP_E4.opus
</region>

<region>
hikey=d6
hivel=127
lokey=c#6
lovel=1
lpc=WqG3QWvf6MHuQjVB8bXpvyiUGcD4ETdBzPECwd8Cd0D+2uk/D3fcvsXQPkAyiu2/XUo2QEM8kT5D4FtAhsMHwGxWSUCLZ0m/4JYKQFyZzL/yTwPB/ZX4QBH4mECq986/
lpc_rms=-28.96
offset=86400
pitch_keycenter=d6
sample=Flute_fall_PP_D6.opus
</region>

<region>
hikey=d5
hivel=127
lokey=c#5
lovel=1
lpc=GqobQkwRxsLaTdBC7YZowvS6wkD3ktdB7RPFwRAgHEEYZZ/ABpCAQJULIcBpKny/aYsUQfQ4QsGnL9lA6YqjwAFeBkH6hBPBldcaQQVjY7/qnCTBkGBUQYvYN8G2XrNA
lpc_rms=-36.20
offset=86400
pitch_keycenter=d5
sample=Flute_fall_PP_D5.opus
</region>

<region>
hikey=d4
hivel=127
lokey=c4
lovel=1
lpc=NzjlQQVmocLdgLRCSgNbwmQNm0Flrb1A2KxFwe2G+r8TTSlBPZy4wCr9B0DZ24O/sh5KvQ8kKMAm4HBAxVz+vJStLsBj0Nk/TMGQPz71Ij75ETLAL3FKQDsklMAIQkBA
lpc_rms=-44.40
offset=86400
pitch_keycenter=d4
sample=Flute_fall_PP_D4.opus
</region>

<region>
hikey=c6
hivel=127
lokey=b5
lovel=1
lpc=rjy2QYPWBsJVikBBHfkTQef2JsHpgK9ACn4nP2MMBb8yDolA2H57wFl2HUDMLhpAbptXP7Z7gMDGwrRA25l8P6RtiMB6kqdAkRJlPzBl1b+8TZRA1V2UwOiZ5cBIoSFB
lpc_rms=-29.41
offset=83951
pitch_keycenter=c6
sample=Flute_fall_PP_C6.opus
</region>

<region>
hikey=c5
hivel=127
lokey=b4
lovel=1
lpc=a2zOQUIxgcIF+ItCVpgrwk9HEUHiP4BBJBSewQR4FEG83ik+rYmYwAsxy0BwgwjBHlQLQdu438BSmaNArL8gwKogfUAci6PAMIZOQIUaS8AmRI9AdJQ9wLzmFkBaklK/
lpc_rms=-39.82
offset=86400
pitch_keycenter=c5
sample=Flute_fall_PP_C5.opus
</region>

<region>
hikey=a#5
hivel=127
lokey=a5
lovel=1
lpc=LK6LQUiY18F/cGBBovq5P6EWDMEYrzpB3FSEwB95jcA8VuJAlqtFwBEYZUAiBUTA5NFrP+Ss17+ZGT1ABlkRQKR2KMA1+eU9ICpPP/M6Qz4RB7c/9ueAv5dhjD84OM6/
lpc_rms=-32.00
offset=86400
pitch_keycenter=a#5
sample=Flute_fall_PP_A#5.opus
</region>

<region>
hikey=a#4
hivel=127
lokey=a4
lovel=1
lpc=o8PCQpjIdMNvGHpD3+0Dw5TKAUFR+YVCQjxmwr8fikHl9ntALOkywZ6rd0CJcVe/koFlQN78GcA4C/I/ZWcrwcnkv0GK7KDBziNQQcfP+MDueh5AfrtowI+kiD/duZFA
lpc_rms=-31.67
offset=86400
pitch_keycenter=a#4
sample=Flute_fall_PP_A#4.opus
</region>
</group>

<group>
ampeg_attack=0.02
ampeg_release=1.5
group_label=Release_46-90
lpc_hicc1=84
lpc_locc1=43
trigger=release

<region>
hikey=g#6
hivel=127
lokey=g6
lovel=1
lpc=zDVsQsaQqcL52CBCrAJbQLuuOMGYeQNCX0mQwc/1CkAzmYRB6mwJwZSiNkHrzpC/bZViQfEtJsHnKOrB5ApQQmj6n8A/O0XBCNiAQQvqmsF5f1lBfCovQPXNxMAahItA
lpc_rms=-11.55
offset=89620
pitch_keycenter=G#6
sample=Flute_fall_MF_G#6.opus
</region>

<region>
hikey=g#5
hivel=127
lokey=g5
lovel=1
lpc=hPiIQUM/DsJMPfhBHRggwWzY/sDui5RBDBtpwcO8rD4s+SdBdbsDwe5PlUBEe4jAjRmfQM5ubcD87VBAPfyxvwDWsb5inYI/zjGsP2y1Kj+6zVDA4RrqP2K/PkAmCA/A
lpc_rms=-26.31
offset=86400
pitch_keycenter=g#5
sample=Flute_fall_MF_G#5.opus
</region>

<region>
hikey=g#4
hivel=127
lokey=g4
lovel=1
lpc=BheNQUfXL8JmDxdC06yOwC6bh8Fyhn5BF9aiwA0KCsAKqwhA31qKvovduT9qNUHAHyQSQI48McA5109AhPn+v8V8nj/PmAhAMDmlwBjcA0BV7wxA+1zivlBRCMC0TGM/
lpc_rms=-28.79
offset=92942
pitch_keycenter=g#4
sample=Flute_fall_MF_G#4.opus
</region>

<region>
hikey=f#6
hivel=127
lokey=f6
lovel=1
lpc=ZeUHQmygTcI7MM5BZHUfvwa2QMGlT+5BJmqJwZvBakDfU+s/spLFPkukiEDNiwPAm1QGQT1858Ar81FBXrhEweFZZ8HEoxdCWXSAwQzbTkCtOtFAYgaTwbpvQUFzUcc/
lpc_rms=-18.43
offset=90871
pitch_keycenter=f#6
sample=Flute_fall_MF_F#6.opus
</region>

<region>
hikey=f#5
hivel=127
lokey=f5
lovel=1
lpc=R/SCQar0FsKpUQVC6eU3wYKHEcAEggZBt8kmwSi76kD4wo8/5cjjwCVm5UBd3cXA1ymwQPgln7+nQta/90UBQNroLMBu8pNAj4YdwEhi5L92kBRAWAuyv262P0C/mMS/
lpc_rms=-27.61
offset=99805
pitch_keycenter=f#5
sample=Flute_fall_MF_F#5.opus
</region>

<region>
hikey=f#4
hivel=127
lokey=f4
lovel=1
lpc=qTgYQtN/08LnKuRC+3hnwvFgzj/M4gRCzrAgwkHHtEFgAdjAmvJFPyR21ED9CTXBiw2eQAjyfL4mFLs8Yy7+vtXko0AoUtDAmcOWQNXD28BNvNFATy9OPr9dIMAP5ig/
lpc_rms=-28.91
offset=88830
pitch_keycenter=f#4
sample=Flute_fall_MF_F#4.opus
</region>

<region>
hikey=e6
hivel=127
lokey=d#6
lovel=1
lpc=wQzKQdLMMMIdPcpBhsAWwLLt07+vJwBBZL0XwfYBfEA547dAMDMNwcMcJUFgGdjAunFmQK1MYUAzea/A+ZO+QLWnBD9m6QrBIixfwHMKrkELSi3B112OvULuSMAL2H9A
lpc_rms=-19.83
offset=82509
pitch_keycenter=e6
sample=Flute_fall_MF_E6.opus
</region>

<region>
hikey=e5
hivel=127
lokey=d#5
lovel=1
lpc=lPjoQQgmiMKrLXpCnCP7wRCSxEBq0ppB6/rjwSCvZUHHa4pA2xYowbF77kBXmmbAaq9RP8wz4L8JXs9Ajz4+wLkHAT+H77nA10uRQDCaRz3UaPFAYggewQ5n0D5ndV5A
lpc_rms=-24.42
offset=83726
pitch_keycenter=e5
sample=Flute_fall_MF_E5.opus
</region>

<region>
hikey=e4
hivel=127
lokey=d#4
lovel=1
lpc=Nl4HQiXDwsJt2uRCZiWdwqzECUJibgZB5kkFwtaL6EHLq1jByOvBvWXeHkFPw3TBWjdRQfOX18DCAglBjeiDwUwvdUEmwfPAJegKQGq83UD3xS3BufQlQLG9MEBa75W/
lpc_rms=-29.88
offset=86400
pitch_keycenter=e4
sample=Flute_fall_MF_E4.opus
</region>

<region>
end=127258
hikey=d6
hivel=127
lokey=c#6
lovel=1
lpc=yYEuQdGjocFOiG1BwPGowACAYr/kBspALQ3NwJR4ckAfnow/CbqCwM/avUA4ZrXAVwmHQIpYF79aSOS/xGN2QNE3KcCJ8ZA/fhIJQEtiZsDeUGDA6rcKQQXbasCBi4s+
lpc_rms=-30.19
offset=82766
pitch_keycenter=d6
sample=Flute_fall_MF_D6.opus
</region>

<region>
hikey=d5
hivel=127
lokey=c#5
lovel=1
lpc=KIcTQmrwssL4h5hCmxOBwSJttcENNPlBa1CTwSUl5UC1v9LAX3A1wJdiUkEr/lrByIRDQQCDusDZN2w/CkZ4wCoZokDxAQ+/88qPvy/7jj/ryQI/FF1YPyTigcDJMCxA
lpc_rms=-25.32
offset=86400
pitch_keycenter=d5
sample=Flute_fall_MF_D5.opus
</region>

<region>
hikey=d4
hivel=127
lokey=c#4
lovel=1
lpc=68mVQetKOMKTui1Cey+wwSqUk0B57OZA8r7xwGfbQkCWpbS/bLuRvS5Spj+r4CnADVNGQCyKccCnmuBAAWDewKlqwD8+zwxAerGxvw+ZZT9EjqS/MiSHP5K1Lr+IBLU+
lpc_rms=-39.67
offset=86400
pitch_keycenter=d4
sample=Flute_fall_MF_D4.opus
</region>

<region>
hikey=c6
hivel=127
lokey=b5
lovel=1
lpc=6Tm3QTfWK8ImxghCQYRkwSijbsDbV5NBeBmLwd0GCEHuovg+jI5QwJ+UoECHPlLAqWxeQGJ0cr/6EcI+AQITQKmeG8BqH01A/v/tv9E4KT+3W4VAZmKFwIGFz8DengdB
lpc_rms=-22.03
offset=92682
pitch_keycenter=c6
sample=Flute_fall_MF_C6.opus
</region>

<region>
hikey=c5
hivel=127
lokey=b4
lovel=1
lpc=jqMFQnGftcIE0bFCOF3vwV2zJMHSo6JBSWGawSSYNkH6L4a+968VwTgpPkEPpyjBv0BPQZxQWMFHN9lAMb2JQKYu4MB+SztAe/1UwDvxf79g0uBAVJSqvVLr78D2GY1A
lpc_rms=-29.25
offset=91756
pitch_keycenter=c5
sample=Flute_fall_MF_C5.opus
</region>

<region>
hivel=127
key=c4
lovel=1
lpc=kGewQUAqIsLOwJ9Bxd7ZwNzUREHZsJTAzY7Fvi/7vsBm1o5A7dxXPxdLwL6xtQzAtisIQOdoTMBNyzhAzhppv7PFo716NHFA76pwwKhrfEDE79vA9H1ZQEpklT/grBO/
lpc_rms=-51.22
offset=86400
sample=Flute_fall_MF_C4.opus
</region>

<region>
hikey=a#5
hivel=127
lokey=a5
lovel=1
lpc=e1hSQbCu4cGfVdhBQ8xUwRuLIMC+U35Bb/SOwbeeEEF/IRY/jgKGwExgnEDXy0TAp+oGQDNPMMBWl3dA9sxYwPgmGkDwIAPA62CPP4HTwz97zpa+3lIcwPbnS0DgqQTA
lpc_rms=-27.16
offset=88076
pitch_keycenter=a#5
sample=Flute_fall_MF_A#5.opus
</region>

<region>
hikey=a#4
hivel=127
lokey=a4
lovel=1
lpc=PfY5Qi5QCsOyLSlDsE3YwqG4xEH9JSBC2mF3wuOwGEIyO7vAaCSBwXn9skG0DCfB40zsP9GR3cBvHkZB1mEqwaIL7kC/XcTA5XmoQNbIs7/AMn/Ax5YuQW6MYMGCZ91A
lpc_rms=-23.97
offset=86400
pitch_keycenter=a#4
sample=Flute_fall_MF_A#4.opus
</region>
</group>

<group>
ampeg_attack=0.02
ampeg_release=1.5
group_label=Release_91-127
lpc_hicc1=127
lpc_locc1=85
trigger=release

<region>
hikey=g#6
hivel=127
lokey=g6
lovel=1
lpc=0tXaQWvcLsLUaetBUYsPwclDoMAezb1BZQObwcYDC0H0bEZA9N4ywNB3wkDCyBXA9fCmQL5yycBifQLBY4zQQXERfMHMnO9AyZPnP9DBM8Ee9jdBoLiCwDqb3D9ySfK9
lpc_rms=-12.51
offset=79028
pitch_keycenter=G#6
sample=Flute_fall_FF_G#6.opus
</region>

<region>
hikey=g#5
hivel=127
lokey=g5
lovel=1
lpc=I16LQe2cGMKqng5CQlKBwYoNSsCggo9BDu6YwQLQC0H0iQ9Aqd+6wEx4iUAi3Ui/Ky6VPfDfAr5Ql0O/CjwUQNB/cL+/YpW/s4UrQLc5A8AHKnI/DSfPvoYeSUBPqDXA
lpc_rms=-20.56
offset=86400
pitch_keycenter=g#5
sample=Flute_fall_FF_G#5.opus
</region>

<region>
hikey=g#4
hivel=127
lokey=f#4
lovel=1
lpc=NIlNQTYG9cFbOclBkvmvwGW+ccCE4K5AhhmpwG5oL0B1fz4/Y/JwwEh9c0C8nDDAElhWQOhV4L+qjxbArjBqQCZqyb9d9D2+4th0vqfvdr4gLTZAaFyxvxioAcDUV8c/
lpc_rms=-26.68
offset=83050
pitch_keycenter=g#4
sample=Flute_fall_FF_G#4.opus
</region>

<region>
hikey=f#6
hivel=127
lokey=f6
lovel=1
lpc=EgEEQrERXMIagxRCqRj+wO+5N8E6ZO5BSgunwf4kpEB/JYFAExy8Plg1XUBOvxLAtIf9QACMw8DNTypBIYBmwbaWn8B4ugBC6eDEwbHQRkElfcA/9Hl1wYA3hUHczI/A
lpc_rms=-13.08
offset=74074
pitch_keycenter=f#6
sample=Flute_fall_FF_F#6.opus
</region>

<region>
hikey=f#5
hivel=127
lokey=f5
lovel=1
lpc=gC+CQfZeFMI46wxCWYWIwSccG0Bceg1BLKVEwczN1ECW1tQ/XnarwCYpq0CoRS3AHamqP6UgQz3sxQLAjjdlQDaLpr+6196/F2pJQHtJrL90n20/CUzwv0x+DUBzJbu9
lpc_rms=-23.34
offset=84227
pitch_keycenter=f#5
sample=Flute_fall_FF_F#5.opus
</region>

<region>
hikey=e6
hivel=127
lokey=d#6
lovel=1
lpc=TekeQsQYaMJ7owtCXGfQwHbx+MAsDbdBPQeIwWSH6EB9Cc5AcAw6wIyOuUDzYzm/LojcQHQIa8BXpuhAgLaMP3cHVkAqOYHB/JMoQLoytUGmF13BZTYfQXtQD8EJHchA
lpc_rms=-10.13
offset=87367
pitch_keycenter=e6
sample=Flute_fall_FF_E6.opus
</region>

<region>
hikey=e5
hivel=127
lokey=d#5
lovel=1
lpc=KFh2QSyqBsLr0rxBwneePnCtKME/zB1B3VmhwAkJuT+XM6o/BgidwPbCqkBHuF7Aekh7QPQHB8C042nAC6isQAfe0b9JCGk/mKlWv4TLF7+4dpY+JO0yvtmnFD9mB9w+
lpc_rms=-23.41
offset=84052
pitch_keycenter=e5
sample=Flute_fall_FF_E5.opus
</region>

<region>
hikey=f4
hivel=127
lokey=d#4
lovel=1
lpc=8YNCQXI7xsGPp21BjKSMvxdGDMDETKBAG5x8wF/th74SsixAkLi4wNOzkEBf62C/viG3P9DCBb9Rf/m/fpeTP5MUqT5S00+/9EHCOjffYT/gLi0/llfPv4rFx7sLv1g/
lpc_rms=-31.84
offset=83649
pitch_keycenter=E4
sample=Flute_fall_FF_E4.opus
</region>

<region>
hikey=d6
hivel=127
lokey=c#6
lovel=1
lpc=gth/Qfj59cHZ0s5BaiBNwZ2eOUAhu7RADl/lwET7okAYpSc+6dF1wAD8ukCx4IjAuriGQNqex7/5jaI8hi+DP2e5xL6mrFA/6XziPyHRuMB7l06/Xx8rQeyGAMH6sBhA
lpc_rms=-19.69
offset=89242
pitch_keycenter=d6
sample=Flute_fall_FF_D6.opus
</region>

<region>
hikey=d5
hivel=127
lokey=c#5
lovel=1
lpc=WW1+QekZEcJOBgBC02pWwYTs8j6HhbxA/vIDwaJX10BMkgdAlswcwfaLCEEz3DnA3Y6jPsIZZj+QL3zAiztDQKWpIEBvPinAD9Kdv3XZNUBdX9y+wg+Hv2Yzub+x8g9A
lpc_rms=-24.13
offset=83663
pitch_keycenter=d5
sample=Flute_fall_FF_D5.opus
</region>

<region>
hikey=d4
hivel=127
lokey=c4
lovel=1
lpc=uBJFQZ0v18HwBp1BhoV4wCdNZcAx7NhA0QqawA1orD9D+Cm/JJGZvz7iX0A1xFfAjvsnQPLKs79pu6o+z4SuvpSc5L6DIGw+ziTQP981Yb+EvAI9UdJZvmOci70uen0+
lpc_rms=-33.05
offset=83925
pitch_keycenter=d4
sample=Flute_fall_FF_D4.opus
</region>

<region>
hikey=c6
hivel=127
lokey=b5
lovel=1
lpc=kcxSQaBAwMFrup5BAKktwWi6TkDg0oxA9SGkwLHAWEDu2hI/K8nyvypN8T+vx8m/LphgQF+Xob898is/M4SsPlLnRL+yWvA/YbOIv4xLQj96HFRAVBDLwMVGqT8AOCpA
lpc_rms=-21.20
offset=83030
pitch_keycenter=c6
sample=Flute_fall_FF_C6.opus
</region>

<region>
hikey=c5
hivel=127
lokey=b4
lovel=1
lpc=bN5qQWHFEsLE3BBCyRuOwa9SVT7NGkVBl+JkwUqxukDH1YhAz/kBwXtv60B1SaDAY1dUPwl6fD8yND8/rU8SwNXiEUB1vKm/pWkDQP1a+r84kqQ/Wi8IwMXPtj/2XAc+
lpc_rms=-22.97
offset=80987
pitch_keycenter=c5
sample=Flute_fall_FF_C5.opus
</region>

<region>
hikey=a#5
hivel=127
lokey=a5
lovel=1
lpc=OjhNQbn9zMFBga5BBjnDwNhcycBjUylB1mPtwCjZHUDBzCNAEHGfwBHLkEAleQTAynI9PyLeED+Br46/X0YSP6yPmz9o4Xi/eM8GP/pCQb8v/Kc/XwZ7v1je1D/xpgbA
lpc_rms=-21.91
offset=85604
pitch_keycenter=a#5
sample=Flute_fall_FF_A#5.opus
</region>

<region>
end=123274
hikey=a#4
hivel=127
lokey=a4
lovel=1
lpc=BG6+QeYqacLDTV9CFozTwXvsm0AENgRBOrlYwchu40C21/Q/lyTvwLqiEkGTLuXAJq+IQM+CKcC0qxlAF9c0v6OtkL69aE/ArnXGQHuEdMClUi6+uNF/QBd4ksAN+w1A
lpc_rms=-22.71
offset=83099
pitch_keycenter=a#4
sample=Flute_fall_FF_A#4.opus
</region>
</group>